<svg width="954" height="244" viewBox="0 0 954 244" fill="none" xmlns="http://www.w3.org/2000/svg">
  <defs>
    <linearGradient id="coreGlow" x1="0" y1="0" x2="1" y2="1">
      <stop offset="0%" stop-color="#0B1F3A"/>
      <stop offset="100%" stop-color="#153B8A"/>
    </linearGradient>
  </defs>

  <g>
    <circle cx="122" cy="122" r="84" stroke="#19D3FF" stroke-width="28" stroke-linecap="round" stroke-dasharray="84 1000" transform="rotate(-52 122 122)"/>
    <circle cx="122" cy="122" r="84" stroke="#10B5FF" stroke-width="28" stroke-linecap="round" stroke-dasharray="84 1000" transform="rotate(20 122 122)"/>
    <circle cx="122" cy="122" r="84" stroke="#0FD0B1" stroke-width="28" stroke-linecap="round" stroke-dasharray="84 1000" transform="rotate(92 122 122)"/>
    <circle cx="122" cy="122" r="84" stroke="#67E35D" stroke-width="28" stroke-linecap="round" stroke-dasharray="84 1000" transform="rotate(164 122 122)"/>
    <circle cx="122" cy="122" r="84" stroke="#2B57D9" stroke-width="28" stroke-linecap="round" stroke-dasharray="84 1000" transform="rotate(236 122 122)"/>
    <circle cx="122" cy="122" r="42" fill="url(#coreGlow)"/>
    <path d="M122 86L153.177 104V140L122 158L90.823 140V104L122 86Z" fill="white"/>
    <path d="M122 100L141.053 111V133L122 144L102.947 133V111L122 100Z" fill="url(#coreGlow)"/>
  </g>

  <g transform="translate(230 0)" text-anchor="middle">
    <text x="360" y="118" fill="#0B1020" font-family="'Avenir Next', 'Montserrat', 'Segoe UI', sans-serif" font-size="84" font-weight="700" letter-spacing="7">LOGO NAME</text>
    <text x="360" y="166" fill="#5E687C" font-family="'Avenir Next', 'Montserrat', 'Segoe UI', sans-serif" font-size="28" font-weight="500" letter-spacing="9">SLOGAN HERE</text>
    <rect x="136" y="186" width="448" height="4" rx="2" fill="url(#coreGlow)" opacity="0.16"/>
  </g>
</svg>
